<svg xmlns="http://www.w3.org/2000/svg" viewBox="0 0 96 96" fill="none">
  <defs>
    <linearGradient id="bg" x1="0" y1="0" x2="0" y2="1">
      <stop offset="0%"  stop-color="#0e0e15"/>
      <stop offset="100%" stop-color="#06060b"/>
    </linearGradient>
    <linearGradient id="bodyG" x1="0" y1="0" x2="0" y2="1">
      <stop offset="0%"  stop-color="#ff2424"/>
      <stop offset="55%" stop-color="#dc1414"/>
      <stop offset="100%" stop-color="#7a0606"/>
    </linearGradient>
    <linearGradient id="bodyHi" x1="0" y1="0" x2="0" y2="1">
      <stop offset="0%"  stop-color="#ffffff" stop-opacity=".7"/>
      <stop offset="100%" stop-color="#ffffff" stop-opacity="0"/>
    </linearGradient>
    <radialGradient id="rimG" cx=".5" cy=".5" r=".5">
      <stop offset="0%"  stop-color="#9c9da3"/>
      <stop offset="60%" stop-color="#3d3d44"/>
      <stop offset="100%" stop-color="#0e0e15"/>
    </radialGradient>
  </defs>
  <rect width="96" height="96" rx="20" fill="url(#bg)"/>
  <g transform="translate(2 22)">
    <path d="M6 56 C6 50 11 46 18 45 L28 44 C32 38 39 32 50 30 C58 28 71 26 87 26 C92 22 99 19 109 26 L82 60 L40 60 L18 60 Q6 60 6 58 Z"
          transform="scale(.83) translate(-1 4)"
          fill="url(#bodyG)"/>
    <path d="M30 38 C44 28 76 22 96 32 L94 38 C70 28 50 32 36 42 Z"
          transform="scale(.83) translate(-1 4)"
          fill="url(#bodyHi)" opacity=".55"/>
    <path d="M40 30 C50 24 64 22 76 22 L84 22 C88 22 92 24 96 28 L70 38 L42 38 Z"
          transform="scale(.83) translate(-1 4)"
          fill="#0e0e15"/>
    <ellipse cx="34" cy="55.5" rx="11" ry="9.5" fill="#0a0a10"/>
    <ellipse cx="71" cy="55.5" rx="11" ry="9.5" fill="#0a0a10"/>
    <circle cx="34" cy="55.5" r="8.4" fill="url(#rimG)"/>
    <circle cx="71" cy="55.5" r="8.4" fill="url(#rimG)"/>
    <circle cx="34" cy="55.5" r="2.6" fill="#0e0e15"/>
    <circle cx="71" cy="55.5" r="2.6" fill="#0e0e15"/>
  </g>
</svg>
